<svg xmlns="http://www.w3.org/2000/svg" viewBox="0 0 40.12 35.26"><defs><style>.cls-1{fill:#999;}</style></defs><g id="Layer_2" data-name="Layer 2"><g id="Layer_1-2" data-name="Layer 1"><path class="cls-1" d="M3.53,13.61v19.3a2.35,2.35,0,0,0,4.7,0V13.61a5.92,5.92,0,0,0,3.52-5.38v-7a1.18,1.18,0,1,0-2.35,0v4.7A1.16,1.16,0,0,1,8.23,7.05H7.05V1.18a1.18,1.18,0,1,0-2.35,0V7.05H3.53A1.17,1.17,0,0,1,2.35,5.88V1.18A1.17,1.17,0,0,0,1.18,0,1.17,1.17,0,0,0,0,1.18V8.23a5.94,5.94,0,0,0,3.53,5.38Z"/><path class="cls-1" d="M40.12,1.17a1.18,1.18,0,0,0-.58-1,1.19,1.19,0,0,0-1.17,0,10.38,10.38,0,0,0-5.38,9V22.33a1.17,1.17,0,0,0,1.17,1.18h1.18v9.4a2.35,2.35,0,0,0,2.35,2.35,2.43,2.43,0,0,0,2.43-2.35Z"/><path class="cls-1" d="M20.06,25.86a5.88,5.88,0,0,0,0-11.76,5.88,5.88,0,1,0,0,11.76Z"/><path class="cls-1" d="M10.58,32A15.33,15.33,0,0,0,33,28.1V25.66a3.54,3.54,0,0,1-2.35-3.33V9.16c0-.06,0-.12,0-.18A15.26,15.26,0,0,0,20.06,4.7a15.57,15.57,0,0,0-6,1.18V8.23A8.47,8.47,0,0,1,10.58,15Zm9.48-20.26A8.23,8.23,0,1,1,11.75,20,8.24,8.24,0,0,1,20.06,11.75Z"/></g></g></svg>
