<svg xmlns="http://www.w3.org/2000/svg" viewBox="0 0 29.27 39.06"><defs><style>.cls-1{fill:#999;}</style></defs><g id="Layer_2" data-name="Layer 2"><g id="Layer_1-2" data-name="Layer 1"><path class="cls-1" d="M25.67,4.89H22.46a5,5,0,0,1-5,4.74H11.83a5,5,0,0,1-5-4.74H3.6A3.6,3.6,0,0,0,0,8.49v27a3.6,3.6,0,0,0,3.6,3.59H25.67a3.6,3.6,0,0,0,3.6-3.59v-27a3.6,3.6,0,0,0-3.6-3.6ZM15.86,34.16H6.05a1.15,1.15,0,1,1,0-2.29h9.81A1.15,1.15,0,0,1,15.86,34.16Zm0-4.91H6.05a1.15,1.15,0,1,1,0-2.29h9.81A1.15,1.15,0,0,1,15.86,29.25Zm0-4.9H6.05a1.15,1.15,0,1,1,0-2.29h9.81A1.15,1.15,0,0,1,15.86,24.35ZM9.73,19.44a1.15,1.15,0,1,1,.08-2.29,4.84,4.84,0,0,1,3.68-4.76,1.16,1.16,0,1,1,2.29,0,4.84,4.84,0,0,1,3.68,4.76,1.15,1.15,0,0,1,1.22,1.15,1.14,1.14,0,0,1-1.14,1.14ZM23.22,34.16H20.76a1.15,1.15,0,0,1,0-2.29h2.46A1.15,1.15,0,0,1,23.22,34.16Zm0-4.91H20.76a1.15,1.15,0,0,1,0-2.29h2.46A1.15,1.15,0,0,1,23.22,29.25Zm0-4.9H20.76a1.15,1.15,0,0,1,0-2.29h2.46A1.15,1.15,0,0,1,23.22,24.35Z"/><path class="cls-1" d="M14.63,14.54a2.53,2.53,0,0,0-2.53,2.61h5.07a2.55,2.55,0,0,0-2.54-2.61Z"/><path class="cls-1" d="M11.83,7.35h5.61a2.75,2.75,0,1,0-.21-5.49,2.75,2.75,0,0,0-5.2,0,2.75,2.75,0,1,0-.2,5.49Z"/></g></g></svg>