<svg xmlns="http://www.w3.org/2000/svg" viewBox="0 0 35.26 35.26"><defs><style>.cls-1{fill:#999;}</style></defs><g id="Layer_2" data-name="Layer 2"><g id="Layer_1-2" data-name="Layer 1"><path class="cls-1" d="M34.16,11h-14a1.1,1.1,0,0,0,0,2.2h14a1.1,1.1,0,1,0,0-2.2Z"/><path class="cls-1" d="M34.16,15.43h-14a1.1,1.1,0,0,0,0,2.2h14a1.1,1.1,0,0,0,0-2.2Z"/><path class="cls-1" d="M34.16,19.83h-14a1.11,1.11,0,0,0,0,2.21h14a1.11,1.11,0,0,0,0-2.21Z"/><path class="cls-1" d="M34.16,24.24h-14a1.1,1.1,0,1,0,0,2.2h14a1.1,1.1,0,0,0,0-2.2Z"/><path class="cls-1" d="M34.16,28.65h-14a1.1,1.1,0,1,0,0,2.2h14a1.1,1.1,0,0,0,0-2.2Z"/><path class="cls-1" d="M2.57,22h11a2.58,2.58,0,0,0,2.57-2.57V13.59A2.57,2.57,0,0,0,13.59,11h-11A2.57,2.57,0,0,0,0,13.59v5.88A2.58,2.58,0,0,0,2.57,22Z"/><path class="cls-1" d="M2.57,35.26h11a2.57,2.57,0,0,0,2.57-2.57V26.81a2.57,2.57,0,0,0-2.57-2.57h-11A2.57,2.57,0,0,0,0,26.81v5.88A2.57,2.57,0,0,0,2.57,35.26Z"/><path class="cls-1" d="M34.16,33.05h-14a1.11,1.11,0,0,0,0,2.21h14a1.11,1.11,0,0,0,0-2.21Z"/><path class="cls-1" d="M32.69,0H14.32a2.58,2.58,0,0,0-2.57,2.57V6.24a2.58,2.58,0,0,0,2.57,2.57H32.69a2.57,2.57,0,0,0,2.57-2.57V2.57A2.57,2.57,0,0,0,32.69,0Z"/><circle class="cls-1" cx="4.41" cy="4.41" r="4.41"/></g></g></svg>
